<svg xmlns="http://www.w3.org/2000/svg" width="626" height="216" fill="none">
  <style>
    .signature {
      animation-duration: 12s;
      animation-name: drawSignature;
      animation-iteration-count: infinite;
      stroke: black;
      stroke-dasharray: 2315;
      stroke-linecap: round;
      stroke-linejoin: round;
      stroke-width: 4;
    }

    @keyframes drawSignature {
      0% {
        stroke-dashoffset: 2315;
      }
      33%, 66% {
        stroke-dashoffset: 0;
      }
      100% {
        stroke-dashoffset: -2315;
      }
    }

    @media (prefers-color-scheme: dark) {
      .signature {
        stroke: white;
      }
    }
  </style>
  <path d="M87 55c13 38 192-34 213-41 37-11 42-12 41-8-2 3-10 10-74 48L6 202c101-60 218-98 328-138 54-20 62-22 56-15A648 648 0 0 1 83 184c4-3 22-12 72-19 49-7 128-12 169-13 86-4-42 32-68 38-68 15 139-13 208-20 83-8 3 8-15 36-5 8 16 6 49 1s78-13 123-23" class="signature"/>
</svg>